# xmcd
#
# Track frame offsets:
#	150
#	45190
#	64725
#
# Disc length: 1397 seconds
#
# Revision: 0
# Processed by: cddbd v1.5.2PL0 Copyright (c) Steve Scherf et al.
# Submitted via: EasyCDDAExtractor 10.0.2.1
#
DISCID=1b057303
DTITLE=Iron Maiden - Sudweststadion Ludwigshafen 08-06-07 Master Source 2 Disc
DTITLE=2
DYEAR=2007
DGENRE=Hard Rock
TTITLE0=2 Minutes To Midnight
TTITLE1=The Evil That Men Do
TTITLE2=Hallowed Be Thy Name
EXTD=
EXTT0=
EXTT1=
EXTT2=
PLAYORDER=
